<?xml version="1.0" encoding="UTF-8"?>
<svg id="Layer_1" data-name="Layer 1" xmlns="http://www.w3.org/2000/svg" viewBox="0 0 241.69 98.82">
  <defs>
    <style>
      .cls-1 {
        fill: #f04c23;
      }

      .cls-2 {
        fill: #f8f8f8;
      }
    </style>
  </defs>
  <path class="cls-1" d="M213.64,62.92h4.02s0,10,0,10h-12.01s0-10.01,0-10.01h5.01s-.01-4.99-.01-4.99c-4.63,1.45-9.08,3.42-13.78,4.71-33.05,9.11-81.37,5.02-115.71,1.28-13.23-1.44-25.57-3.6-38.64-5.99v5s4.14,0,4.14,0v10.01s-12.01,0-12.01,0v-10.01s4.01.01,4.01.01l-.05-5.97c-31.55-4.46-31.34-18.81,0-23.08l.06-6.96h-4.02s0-9,0-9h12.01s-.04,8.97-.04,8.97c-5.04-.2-4.31,1.05-4.27,6.02,6.31-1.43,13.55-2.96,19.97-3.81,23.23-3.09,47.34-5.53,70.79-6.21,26.61-.77,52.29.16,77.54,9.04v-5s-5,.01-5,.01l.02-9h12s0,9.01,0,9.01h-4.02s.05,6.25.05,6.25c.21.88,13,8.06,12.99,12.24-3.22,7.96-14.39,6.58-13.04,17.51Z"/>
  <g>
    <path class="cls-2" d="M67,49.89c-.06.23-.09.48-.09.74v.28c0,.44.03.75.09.94,0,1.24,0,2.19-.01,2.87-.05.21-4.1.32-12.14.32-.37,0-.98,0-1.83-.02-.13-.25-.2-.65-.2-1.22l.02-.8v-5.13s.01-2.31.01-2.31v-3.73c.01-.69,0-1.34-.01-1.94v-.14l-.04-1.77c0-1.04.09-1.72.26-2.03.16,0,.39.01.68.01h.59l2.07-.02c2.35,0,3.65.15,3.89.44l-.1,4.29-.04,3.6v.15s-.06,5.12-.06,5.12l.49.28c1.48-.09,2.92-.14,4.31-.14s2.09.07,2.11.21Z"/>
    <path class="cls-2" d="M67.37,45.36l.02-.27c.1-1.02.23-1.93.39-2.73.16-.79.43-1.53.8-2.22.88-1.52,2.1-2.67,3.67-3.45,1.57-.78,3.26-1.17,5.08-1.17s3.47.37,4.95,1.1c.89.43,1.58.98,2.08,1.65.96,1.2,1.59,2.3,1.89,3.31.3,1.01.46,2.17.46,3.49,0,2.94-.61,5.17-1.82,6.72l-.57.75c-.76.89-1.84,1.57-3.24,2.05-1.39.48-2.78.73-4.15.74-2.35,0-4.27-.49-5.77-1.48-2.54-1.65-3.81-4.48-3.81-8.49ZM74.44,45.26s0,.03-.01.06v.04c-.03.34-.05.73-.05,1.16s.03.88.1,1.35.18.95.34,1.43c.16.48.41.86.74,1.16.36.31.76.47,1.21.47s.82-.06,1.13-.19c.31-.13.57-.29.77-.49s.39-.46.55-.8c.39-.89.59-2.28.59-4.16s-.22-3.25-.66-4.02c-.44-.77-1.1-1.15-1.99-1.15-.44,0-.83.11-1.16.32-.33.21-.58.44-.75.66-.17.23-.34.72-.52,1.46-.18.75-.26,1.44-.26,2.07l-.05.63Z"/>
    <path class="cls-2" d="M107.19,46v.82s-.01,4.55-.01,4.55l.02,2.17v1.19c-.04.07-.24.1-.59.1h-.32l-3.86.05c-1.64,0-2.86,0-3.67-.01-.12-.13-.57-1.32-1.34-3.58l-2.35-6.24-.44.06v1.25s-.01,3.33-.01,3.33l.05,3.33v1.38c0,.37-.08.56-.25.58-.81-.02-1.59-.04-2.33-.04h-.38l-1.86.05h-.25l-.89.02-.04-.02c-.27-.25-.41-.44-.41-.55v-.47s.07-4.8.07-4.8c0-5.27.05-9.25.15-11.95l.02-1.02c0-.07,2.83-.14,8.48-.2.05.03.12.21.22.54v-.04l.07.25c.61,1.74,1.34,3.73,2.21,5.99.87,2.25,1.31,3.4,1.33,3.45l.42-.02.05-10.03c0-.07.6-.1,1.8-.1l3.09.06h.91c.06,2.71.09,6.01.09,9.88Z"/>
    <path class="cls-2" d="M128.26,53.9s0,.02.01.05l-.04.1h.01v.02s0,.03-.01.04c-.39.3-1.33.57-2.82.81-1.5.25-2.53.37-3.09.37s-.88,0-.94-.01l-.63.04c-.66.04-1.03.06-1.13.06-3.44,0-6.07-.87-7.87-2.6s-2.7-4.19-2.7-7.38.97-5.6,2.91-7.25c1.94-1.65,4.57-2.47,7.88-2.47.61,0,1.36.06,2.25.17.89.11,1.67.28,2.34.5.82.34,1.52.82,2.11,1.46.59.64.97,1.34,1.15,2.11.03.21.07.55.12,1,.04.46.08.79.12,1-.05.12-.23.18-.53.18l-6.25-.11s-.07-.13-.12-.33v.04c-.15-.66-.44-1.07-.87-1.22-.2-.07-.46-.11-.77-.11s-.62.05-.9.16c-.28.11-.52.25-.71.44s-.36.41-.5.66c-.15.25-.26.52-.33.81s-.14.58-.2.89c-.06.3-.09.6-.1.9-.01.3-.02.58-.04.85s-.01.49,0,.67c0,.18.01.29.01.35v.85c0,.53.02.9.07,1.11.05.21.11.44.17.69.07.25.14.44.23.57.32.45.67.77,1.04.94s.96.26,1.75.26,1.54-.12,2.26-.36l.06-1.94-.89-.07-.12.06h-1.43s-.31-.31-.31-.31c-.02-.14-.02-.36-.02-.66v-2.76c0-.14.1-.28.3-.42h.82c.71,0,1.51,0,2.4.02h.12c.8.02,1.42.02,1.83.02h1.02c1.46-.01,2.29.08,2.5.27l-.15,9.34v.17Z"/>
    <path class="cls-2" d="M135.98,36.11l3.95-.04c.84,0,1.59.02,2.28.05,1.83.05,3.22.48,4.18,1.29s1.43,1.96,1.43,3.43c0,1.03-.3,1.9-.9,2.63-.6.73-1.47,1.36-2.62,1.91,1.82.57,2.92,1.97,3.31,4.18.09.48.16,1.04.22,1.66.05.62.1,1.04.13,1.25l.12.63c.13.74.25,1.27.34,1.6l-.05.04c-1.39.09-2.67.14-3.82.14s-2.17-.02-3.06-.06h-.07c-.25,0-.52-1.21-.81-3.63l-.06-.53c-.03-.9-.19-1.51-.47-1.82-.28-.31-.77-.47-1.47-.47h-.16s-.65.01-.65.01v4.13s.01,2.25.01,2.25c-.02.08-.09.13-.18.15-.9.03-2.18.05-3.82.05s-2.73,0-3.25.01l-.07-.02h-.02s-.04,0-.07-.02l.02-1.11v-.37s.04-5.11.04-5.11v-1.82s.02-3.19.02-3.19v-.42s-.02-2.79-.02-2.79l.05-3.92c0-.07.23-.1.7-.1h.79s.75.01.75.01h1.56s1.7-.01,1.7-.01ZM140.53,40.12c-.49-.21-1.15-.32-1.97-.32h-.71c-.09.13-.14.82-.14,2.07s.02,2.09.06,2.52c2.57-.06,3.85-.94,3.85-2.66,0-.73-.37-1.27-1.1-1.61ZM148.43,54.71h0s-.01,0-.01,0h.01ZM148.49,54.67l-.06.04v-.02s.02-.01.06-.01Z"/>
    <path class="cls-2" d="M149.57,53.29c0-1.66.04-2.82.14-3.47,0-3.57.05-7.16.15-10.79-.02-.52-.04-1.04-.04-1.56v-.41c-.03-.25-.05-.48-.05-.68s.02-.32.06-.38c1.75.11,3.29.16,4.61.16s2.23-.02,2.72-.07c.02.02.03.09.04.21h-.09v4.45l.09,10.01c0,.07.01.14.04.18v.02s.04.1.04.16l.1,3.58c-.04.09-.11.16-.22.21h-.42l-6.89.11c-.08-.04-.19-.1-.32-.18v-.21s.05-1.35.05-1.35Z"/>
    <path class="cls-2" d="M164.98,36.01l2.3-.04c4.01,0,6.83.66,8.45,1.99.34.25.72.68,1.13,1.28,1.19,1.73,1.78,3.64,1.78,5.73,0,3.73-1.28,6.49-3.85,8.28-1.53,1.07-3.3,1.62-5.29,1.64l-.05.05h-.31l-3.27-.04c-1.48,0-3.34.04-5.57.11-.16-.29-.23-.64-.23-1.05v-.44s.01-1.92.01-1.92l.03-2.73v-4.5c-.02-1.03-.03-1.8-.03-2.31v-2.3s.01-3.52.01-3.52c0-.07.45-.12,1.34-.17s1.61-.07,2.14-.07h1.4ZM170.2,40.27c-.47-.34-.98-.52-1.55-.57-.2,0-.47-.02-.81-.02-.34,0-.59-.02-.74-.02-.15.22-.25.39-.29.49l-.22.46v.69c0,1.42.03,3.34.1,5.77l.07,3.56c.05.25.21.41.49.46.84-.02,1.5-.07,1.96-.17,1.62-.57,2.42-2.54,2.42-5.89,0-2.49-.48-4.06-1.43-4.74Z"/>
    <path class="cls-2" d="M180.34,39.38l-.06-3.24s.04.01.09.04c6.23-.11,10.93-.16,14.09-.17.03.02.06.04.07.07v3.47c0,.34,0,.61-.02.82-.04.13-.28.2-.73.2h-.09c-1.98,0-4.05-.03-6.2-.1,0,.07,0,.21-.03.39-.02.19-.04.32-.04.41l-.06.47c-.04.31-.07.85-.09,1.62l3.81-.09c.66-.02,1.13-.02,1.43-.02h.2c.5,0,.83.01.98.04.16.03.23.11.23.25v.1s-.01.3-.01.3l.06,3.16h-.01s0,0,0,0c-2.49.12-4.49.18-5.98.18h-.58v2.98l6.68-.21c.37,0,.6.05.7.16,0,.21-.01.52-.01.91l.09,3.35c0,.21-.09.32-.27.36l-4.08-.04c-.8,0-2.4.03-4.8.09l-2.02.05c-1.43.05-2.49.07-3.17.07l-.04-.02h.01c-.08-.08-.16-.16-.23-.23v-.43l.07-13.15v-1.78Z"/>
  </g>
</svg>